<?xml version="1.0" encoding="us-ascii" standalone="no"?><svg xmlns="http://www.w3.org/2000/svg" xmlns:xlink="http://www.w3.org/1999/xlink" contentStyleType="text/css" height="731px" preserveAspectRatio="none" style="width:908px;height:731px;background:#FFFFFF;" version="1.1" viewBox="0 0 908 731" width="908px" zoomAndPan="magnify"><defs/><g><!--class OrderStatus--><g id="elem_OrderStatus"><rect codeLine="7" fill="#F1F1F1" height="105.1875" id="OrderStatus" rx="2.5" ry="2.5" style="stroke:#181818;stroke-width:0.5;" width="119" x="23" y="7"/><ellipse cx="38" cy="23" fill="#EB937F" rx="11" ry="11" style="stroke:#181818;stroke-width:1.0;"/><path d="M36.7969,23.875 L38.25,23.875 L38.25,23.9844 C38.25,24.3906 38.2813,24.5469 38.3594,24.7031 C38.5156,24.9531 38.7969,25.1094 39.0938,25.1094 C39.3438,25.1094 39.6094,24.9688 39.7656,24.75 C39.8906,24.5938 39.9219,24.4375 39.9219,23.9844 L39.9219,22.0625 C39.9219,21.9063 39.9219,21.8594 39.9063,21.7031 C39.8438,21.2344 39.5313,20.9219 39.0781,20.9219 C38.8281,20.9219 38.5625,21.0625 38.3906,21.2813 C38.2813,21.4531 38.25,21.6094 38.25,22.0625 L38.25,22.1875 L36.7969,22.1875 L36.7969,19.7813 L40.7813,19.7813 L40.7813,20.6406 C40.7813,21.0469 40.8125,21.2188 40.8906,21.375 C41.0625,21.625 41.3438,21.7813 41.625,21.7813 C41.8906,21.7813 42.1563,21.6406 42.3281,21.4219 C42.4375,21.25 42.4688,21.1094 42.4688,20.6406 L42.4688,18.0938 L34.8438,18.0938 C34.4063,18.0938 34.2813,18.1094 34.125,18.2031 C33.875,18.3594 33.7188,18.6563 33.7188,18.9375 C33.7188,19.2188 33.8594,19.4688 34.0781,19.6406 C34.2344,19.75 34.4219,19.7813 34.8438,19.7813 L35.0938,19.7813 L35.0938,26.2969 L34.8438,26.2969 C34.4375,26.2969 34.2813,26.3125 34.125,26.4219 C33.875,26.5938 33.7188,26.8594 33.7188,27.1563 C33.7188,27.4219 33.8594,27.6719 34.0781,27.8281 C34.2188,27.9531 34.4531,28 34.8438,28 L42.8438,28 L42.8438,25.4219 C42.8438,24.9844 42.8125,24.8438 42.7344,24.6875 C42.5625,24.4375 42.2813,24.2813 42,24.2813 C41.7344,24.2813 41.4688,24.3906 41.2969,24.6406 C41.1875,24.7969 41.1563,24.9375 41.1563,25.4219 L41.1563,26.2969 L36.7969,26.2969 L36.7969,23.875 Z " fill="#000000"/><text fill="#000000" font-family="sans-serif" font-size="14" lengthAdjust="spacing" textLength="87" x="52" y="27.8467">OrderStatus</text><line style="stroke:#181818;stroke-width:0.5;" x1="24" x2="141" y1="39" y2="39"/><text fill="#000000" font-family="sans-serif" font-size="14" lengthAdjust="spacing" textLength="64" x="29" y="55.9951">PENDING</text><text fill="#000000" font-family="sans-serif" font-size="14" lengthAdjust="spacing" textLength="99" x="29" y="72.292">IN_PROGRESS</text><text fill="#000000" font-family="sans-serif" font-size="14" lengthAdjust="spacing" textLength="88" x="29" y="88.5889">COMPLETED</text><text fill="#000000" font-family="sans-serif" font-size="14" lengthAdjust="spacing" textLength="77" x="29" y="104.8857">CANCELED</text></g><!--class PaymentStatus--><g id="elem_PaymentStatus"><rect codeLine="14" fill="#F1F1F1" height="88.8906" id="PaymentStatus" rx="2.5" ry="2.5" style="stroke:#181818;stroke-width:0.5;" width="142" x="177.5" y="15"/><ellipse cx="192.5" cy="31" fill="#EB937F" rx="11" ry="11" style="stroke:#181818;stroke-width:1.0;"/><path d="M191.2969,31.875 L192.75,31.875 L192.75,31.9844 C192.75,32.3906 192.7813,32.5469 192.8594,32.7031 C193.0156,32.9531 193.2969,33.1094 193.5938,33.1094 C193.8438,33.1094 194.1094,32.9688 194.2656,32.75 C194.3906,32.5938 194.4219,32.4375 194.4219,31.9844 L194.4219,30.0625 C194.4219,29.9063 194.4219,29.8594 194.4063,29.7031 C194.3438,29.2344 194.0313,28.9219 193.5781,28.9219 C193.3281,28.9219 193.0625,29.0625 192.8906,29.2813 C192.7813,29.4531 192.75,29.6094 192.75,30.0625 L192.75,30.1875 L191.2969,30.1875 L191.2969,27.7813 L195.2813,27.7813 L195.2813,28.6406 C195.2813,29.0469 195.3125,29.2188 195.3906,29.375 C195.5625,29.625 195.8438,29.7813 196.125,29.7813 C196.3906,29.7813 196.6563,29.6406 196.8281,29.4219 C196.9375,29.25 196.9688,29.1094 196.9688,28.6406 L196.9688,26.0938 L189.3438,26.0938 C188.9063,26.0938 188.7813,26.1094 188.625,26.2031 C188.375,26.3594 188.2188,26.6563 188.2188,26.9375 C188.2188,27.2188 188.3594,27.4688 188.5781,27.6406 C188.7344,27.75 188.9219,27.7813 189.3438,27.7813 L189.5938,27.7813 L189.5938,34.2969 L189.3438,34.2969 C188.9375,34.2969 188.7813,34.3125 188.625,34.4219 C188.375,34.5938 188.2188,34.8594 188.2188,35.1563 C188.2188,35.4219 188.3594,35.6719 188.5781,35.8281 C188.7188,35.9531 188.9531,36 189.3438,36 L197.3438,36 L197.3438,33.4219 C197.3438,32.9844 197.3125,32.8438 197.2344,32.6875 C197.0625,32.4375 196.7813,32.2813 196.5,32.2813 C196.2344,32.2813 195.9688,32.3906 195.7969,32.6406 C195.6875,32.7969 195.6563,32.9375 195.6563,33.4219 L195.6563,34.2969 L191.2969,34.2969 L191.2969,31.875 Z " fill="#000000"/><text fill="#000000" font-family="sans-serif" font-size="14" lengthAdjust="spacing" textLength="110" x="206.5" y="35.8467">PaymentStatus</text><line style="stroke:#181818;stroke-width:0.5;" x1="178.5" x2="318.5" y1="47" y2="47"/><text fill="#000000" font-family="sans-serif" font-size="14" lengthAdjust="spacing" textLength="53" x="183.5" y="63.9951">UNPAID</text><text fill="#000000" font-family="sans-serif" font-size="14" lengthAdjust="spacing" textLength="34" x="183.5" y="80.292">PAID</text><text fill="#000000" font-family="sans-serif" font-size="14" lengthAdjust="spacing" textLength="77" x="183.5" y="96.5889">REFUNDED</text></g><!--class TransactionStatus--><g id="elem_TransactionStatus"><rect codeLine="20" fill="#F1F1F1" height="88.8906" id="TransactionStatus" rx="2.5" ry="2.5" style="stroke:#181818;stroke-width:0.5;" width="162" x="354.5" y="15"/><ellipse cx="369.5" cy="31" fill="#EB937F" rx="11" ry="11" style="stroke:#181818;stroke-width:1.0;"/><path d="M368.2969,31.875 L369.75,31.875 L369.75,31.9844 C369.75,32.3906 369.7813,32.5469 369.8594,32.7031 C370.0156,32.9531 370.2969,33.1094 370.5938,33.1094 C370.8438,33.1094 371.1094,32.9688 371.2656,32.75 C371.3906,32.5938 371.4219,32.4375 371.4219,31.9844 L371.4219,30.0625 C371.4219,29.9063 371.4219,29.8594 371.4063,29.7031 C371.3438,29.2344 371.0313,28.9219 370.5781,28.9219 C370.3281,28.9219 370.0625,29.0625 369.8906,29.2813 C369.7813,29.4531 369.75,29.6094 369.75,30.0625 L369.75,30.1875 L368.2969,30.1875 L368.2969,27.7813 L372.2813,27.7813 L372.2813,28.6406 C372.2813,29.0469 372.3125,29.2188 372.3906,29.375 C372.5625,29.625 372.8438,29.7813 373.125,29.7813 C373.3906,29.7813 373.6563,29.6406 373.8281,29.4219 C373.9375,29.25 373.9688,29.1094 373.9688,28.6406 L373.9688,26.0938 L366.3438,26.0938 C365.9063,26.0938 365.7813,26.1094 365.625,26.2031 C365.375,26.3594 365.2188,26.6563 365.2188,26.9375 C365.2188,27.2188 365.3594,27.4688 365.5781,27.6406 C365.7344,27.75 365.9219,27.7813 366.3438,27.7813 L366.5938,27.7813 L366.5938,34.2969 L366.3438,34.2969 C365.9375,34.2969 365.7813,34.3125 365.625,34.4219 C365.375,34.5938 365.2188,34.8594 365.2188,35.1563 C365.2188,35.4219 365.3594,35.6719 365.5781,35.8281 C365.7188,35.9531 365.9531,36 366.3438,36 L374.3438,36 L374.3438,33.4219 C374.3438,32.9844 374.3125,32.8438 374.2344,32.6875 C374.0625,32.4375 373.7813,32.2813 373.5,32.2813 C373.2344,32.2813 372.9688,32.3906 372.7969,32.6406 C372.6875,32.7969 372.6563,32.9375 372.6563,33.4219 L372.6563,34.2969 L368.2969,34.2969 L368.2969,31.875 Z " fill="#000000"/><text fill="#000000" font-family="sans-serif" font-size="14" lengthAdjust="spacing" textLength="130" x="383.5" y="35.8467">TransactionStatus</text><line style="stroke:#181818;stroke-width:0.5;" x1="355.5" x2="515.5" y1="47" y2="47"/><text fill="#000000" font-family="sans-serif" font-size="14" lengthAdjust="spacing" textLength="90" x="360.5" y="63.9951">SUCCESSFUL</text><text fill="#000000" font-family="sans-serif" font-size="14" lengthAdjust="spacing" textLength="50" x="360.5" y="80.292">FAILED</text><text fill="#000000" font-family="sans-serif" font-size="14" lengthAdjust="spacing" textLength="64" x="360.5" y="96.5889">PENDING</text></g><!--class PaymentMethod--><g id="elem_PaymentMethod"><rect codeLine="26" fill="#F1F1F1" height="88.8906" id="PaymentMethod" rx="2.5" ry="2.5" style="stroke:#181818;stroke-width:0.5;" width="151" x="7" y="189"/><ellipse cx="22" cy="205" fill="#EB937F" rx="11" ry="11" style="stroke:#181818;stroke-width:1.0;"/><path d="M20.7969,205.875 L22.25,205.875 L22.25,205.9844 C22.25,206.3906 22.2813,206.5469 22.3594,206.7031 C22.5156,206.9531 22.7969,207.1094 23.0938,207.1094 C23.3438,207.1094 23.6094,206.9688 23.7656,206.75 C23.8906,206.5938 23.9219,206.4375 23.9219,205.9844 L23.9219,204.0625 C23.9219,203.9063 23.9219,203.8594 23.9063,203.7031 C23.8438,203.2344 23.5313,202.9219 23.0781,202.9219 C22.8281,202.9219 22.5625,203.0625 22.3906,203.2813 C22.2813,203.4531 22.25,203.6094 22.25,204.0625 L22.25,204.1875 L20.7969,204.1875 L20.7969,201.7813 L24.7813,201.7813 L24.7813,202.6406 C24.7813,203.0469 24.8125,203.2188 24.8906,203.375 C25.0625,203.625 25.3438,203.7813 25.625,203.7813 C25.8906,203.7813 26.1563,203.6406 26.3281,203.4219 C26.4375,203.25 26.4688,203.1094 26.4688,202.6406 L26.4688,200.0938 L18.8438,200.0938 C18.4063,200.0938 18.2813,200.1094 18.125,200.2031 C17.875,200.3594 17.7188,200.6563 17.7188,200.9375 C17.7188,201.2188 17.8594,201.4688 18.0781,201.6406 C18.2344,201.75 18.4219,201.7813 18.8438,201.7813 L19.0938,201.7813 L19.0938,208.2969 L18.8438,208.2969 C18.4375,208.2969 18.2813,208.3125 18.125,208.4219 C17.875,208.5938 17.7188,208.8594 17.7188,209.1563 C17.7188,209.4219 17.8594,209.6719 18.0781,209.8281 C18.2188,209.9531 18.4531,210 18.8438,210 L26.8438,210 L26.8438,207.4219 C26.8438,206.9844 26.8125,206.8438 26.7344,206.6875 C26.5625,206.4375 26.2813,206.2813 26,206.2813 C25.7344,206.2813 25.4688,206.3906 25.2969,206.6406 C25.1875,206.7969 25.1563,206.9375 25.1563,207.4219 L25.1563,208.2969 L20.7969,208.2969 L20.7969,205.875 Z " fill="#000000"/><text fill="#000000" font-family="sans-serif" font-size="14" lengthAdjust="spacing" textLength="119" x="36" y="209.8467">PaymentMethod</text><line style="stroke:#181818;stroke-width:0.5;" x1="8" x2="157" y1="221" y2="221"/><text fill="#000000" font-family="sans-serif" font-size="14" lengthAdjust="spacing" textLength="41" x="13" y="237.9951">CARD</text><text fill="#000000" font-family="sans-serif" font-size="14" lengthAdjust="spacing" textLength="80" x="13" y="254.292">APPLE_PAY</text><text fill="#000000" font-family="sans-serif" font-size="14" lengthAdjust="spacing" textLength="96" x="13" y="270.5889">GOOGLE_PAY</text></g><!--class Category--><g id="elem_Category"><rect codeLine="32" fill="#F1F1F1" height="88.8906" id="Category" rx="2.5" ry="2.5" style="stroke:#181818;stroke-width:0.5;" width="98" x="193.5" y="189"/><ellipse cx="208.5" cy="205" fill="#EB937F" rx="11" ry="11" style="stroke:#181818;stroke-width:1.0;"/><path d="M207.2969,205.875 L208.75,205.875 L208.75,205.9844 C208.75,206.3906 208.7813,206.5469 208.8594,206.7031 C209.0156,206.9531 209.2969,207.1094 209.5938,207.1094 C209.8438,207.1094 210.1094,206.9688 210.2656,206.75 C210.3906,206.5938 210.4219,206.4375 210.4219,205.9844 L210.4219,204.0625 C210.4219,203.9063 210.4219,203.8594 210.4063,203.7031 C210.3438,203.2344 210.0313,202.9219 209.5781,202.9219 C209.3281,202.9219 209.0625,203.0625 208.8906,203.2813 C208.7813,203.4531 208.75,203.6094 208.75,204.0625 L208.75,204.1875 L207.2969,204.1875 L207.2969,201.7813 L211.2813,201.7813 L211.2813,202.6406 C211.2813,203.0469 211.3125,203.2188 211.3906,203.375 C211.5625,203.625 211.8438,203.7813 212.125,203.7813 C212.3906,203.7813 212.6563,203.6406 212.8281,203.4219 C212.9375,203.25 212.9688,203.1094 212.9688,202.6406 L212.9688,200.0938 L205.3438,200.0938 C204.9063,200.0938 204.7813,200.1094 204.625,200.2031 C204.375,200.3594 204.2188,200.6563 204.2188,200.9375 C204.2188,201.2188 204.3594,201.4688 204.5781,201.6406 C204.7344,201.75 204.9219,201.7813 205.3438,201.7813 L205.5938,201.7813 L205.5938,208.2969 L205.3438,208.2969 C204.9375,208.2969 204.7813,208.3125 204.625,208.4219 C204.375,208.5938 204.2188,208.8594 204.2188,209.1563 C204.2188,209.4219 204.3594,209.6719 204.5781,209.8281 C204.7188,209.9531 204.9531,210 205.3438,210 L213.3438,210 L213.3438,207.4219 C213.3438,206.9844 213.3125,206.8438 213.2344,206.6875 C213.0625,206.4375 212.7813,206.2813 212.5,206.2813 C212.2344,206.2813 211.9688,206.3906 211.7969,206.6406 C211.6875,206.7969 211.6563,206.9375 211.6563,207.4219 L211.6563,208.2969 L207.2969,208.2969 L207.2969,205.875 Z " fill="#000000"/><text fill="#000000" font-family="sans-serif" font-size="14" lengthAdjust="spacing" textLength="66" x="222.5" y="209.8467">Category</text><line style="stroke:#181818;stroke-width:0.5;" x1="194.5" x2="290.5" y1="221" y2="221"/><text fill="#000000" font-family="sans-serif" font-size="14" lengthAdjust="spacing" textLength="79" x="199.5" y="237.9951">APPETIZER</text><text fill="#000000" font-family="sans-serif" font-size="14" lengthAdjust="spacing" textLength="56" x="199.5" y="254.292">ENTREE</text><text fill="#000000" font-family="sans-serif" font-size="14" lengthAdjust="spacing" textLength="66" x="199.5" y="270.5889">DESSERT</text></g><!--class User--><g id="elem_User"><rect codeLine="39" fill="#F1F1F1" height="105.1875" id="User" rx="2.5" ry="2.5" style="stroke:#181818;stroke-width:0.5;" width="188" x="556.5" y="7"/><ellipse cx="630.25" cy="23" fill="#A9DCDF" rx="11" ry="11" style="stroke:#181818;stroke-width:1.0;"/><path d="M632.3281,24.8125 L632.7188,25.7969 L632.3281,25.7969 C631.875,25.7969 631.7656,25.8125 631.6094,25.9219 C631.3594,26.0781 631.2031,26.3594 631.2031,26.6563 C631.2031,26.9219 631.3438,27.1719 631.5625,27.3281 C631.7031,27.4531 631.9063,27.5 632.3281,27.5 L634.6875,27.5 C635.0469,27.5 635.2656,27.4688 635.4063,27.375 C635.6563,27.2344 635.8125,26.9375 635.8125,26.6563 C635.8125,26.375 635.6719,26.125 635.4531,25.9688 C635.2813,25.8281 635.125,25.7969 634.6563,25.7969 L631.2656,17.5938 L627.5938,17.5938 C627.1406,17.5938 627.0156,17.6094 626.8594,17.7031 C626.6094,17.875 626.4531,18.1563 626.4531,18.4375 C626.4531,18.7188 626.5938,18.9688 626.8125,19.1406 C626.9844,19.25 627.1563,19.2813 627.5938,19.2813 L628.6719,19.2813 L626.0313,25.7969 C625.6094,25.7969 625.4531,25.8125 625.2969,25.9219 C625.0469,26.0781 624.8906,26.3594 624.8906,26.6563 C624.8906,27.2188 625.2656,27.5 626.0156,27.5 L628.2813,27.5 C628.6406,27.5 628.8594,27.4688 628.9844,27.375 C629.25,27.2344 629.3906,26.9375 629.3906,26.6563 C629.3906,26.375 629.2656,26.125 629.0469,25.9531 C628.875,25.8281 628.7344,25.7969 628.2813,25.7969 L627.8906,25.7969 L628.2813,24.8125 L632.3281,24.8125 Z M631.625,23.1094 L628.9531,23.1094 L630.2969,19.8438 L631.625,23.1094 Z " fill="#000000"/><text fill="#000000" font-family="sans-serif" font-size="14" font-style="italic" lengthAdjust="spacing" textLength="32" x="650.75" y="27.8467">User</text><line style="stroke:#181818;stroke-width:0.5;" x1="557.5" x2="743.5" y1="39" y2="39"/><ellipse cx="567.5" cy="52.6484" fill="none" rx="3" ry="3" style="stroke:#038048;stroke-width:1.0;"/><text fill="#000000" font-family="sans-serif" font-size="14" lengthAdjust="spacing" textLength="162" x="576.5" y="55.9951">String uniqueIdentifier</text><ellipse cx="567.5" cy="68.9453" fill="none" rx="3" ry="3" style="stroke:#038048;stroke-width:1.0;"/><text fill="#000000" font-family="sans-serif" font-size="14" lengthAdjust="spacing" textLength="88" x="576.5" y="72.292">String name</text><ellipse cx="567.5" cy="85.2422" fill="none" rx="3" ry="3" style="stroke:#038048;stroke-width:1.0;"/><text fill="#000000" font-family="sans-serif" font-size="14" lengthAdjust="spacing" textLength="151" x="576.5" y="88.5889">String phoneNumber</text><ellipse cx="567.5" cy="101.5391" fill="none" rx="3" ry="3" style="stroke:#038048;stroke-width:1.0;"/><text fill="#000000" font-family="sans-serif" font-size="14" lengthAdjust="spacing" textLength="87" x="576.5" y="104.8857">String email</text></g><!--class Restaurant--><g id="elem_Restaurant"><rect codeLine="46" fill="#F1F1F1" height="72.5938" id="Restaurant" rx="2.5" ry="2.5" style="stroke:#181818;stroke-width:0.5;" width="132" x="398.5" y="197"/><ellipse cx="422.95" cy="213" fill="#ADD1B2" rx="11" ry="11" style="stroke:#181818;stroke-width:1.0;"/><path d="M425.2938,208.6719 C424.3563,208.2344 423.7625,208.0938 422.8875,208.0938 C420.2625,208.0938 418.2625,210.1719 418.2625,212.8906 L418.2625,214.0156 C418.2625,216.5938 420.3719,218.4844 423.2625,218.4844 C424.4813,218.4844 425.6375,218.1875 426.3875,217.6406 C426.9656,217.2344 427.2938,216.7813 427.2938,216.3906 C427.2938,215.9375 426.9031,215.5469 426.4344,215.5469 C426.2156,215.5469 426.0125,215.625 425.825,215.8125 C425.3719,216.2969 425.3719,216.2969 425.1844,216.3906 C424.7625,216.6563 424.075,216.7813 423.3094,216.7813 C421.2625,216.7813 419.9656,215.6875 419.9656,213.9844 L419.9656,212.8906 C419.9656,211.1094 421.2156,209.7969 422.95,209.7969 C423.5281,209.7969 424.1375,209.9531 424.6063,210.2031 C425.0906,210.4844 425.2625,210.7031 425.3563,211.1094 C425.4188,211.5156 425.45,211.6406 425.5906,211.7656 C425.7313,211.9063 425.9656,212.0156 426.1844,212.0156 C426.45,212.0156 426.7156,211.875 426.8875,211.6563 C426.9969,211.5 427.0281,211.3125 427.0281,210.8906 L427.0281,209.4688 C427.0281,209.0313 427.0125,208.9063 426.9188,208.75 C426.7625,208.4844 426.4813,208.3438 426.1844,208.3438 C425.8875,208.3438 425.6844,208.4375 425.4656,208.75 L425.2938,208.6719 Z " fill="#000000"/><text fill="#000000" font-family="sans-serif" font-size="14" lengthAdjust="spacing" textLength="79" x="439.05" y="217.8467">Restaurant</text><line style="stroke:#181818;stroke-width:0.5;" x1="399.5" x2="529.5" y1="229" y2="229"/><ellipse cx="409.5" cy="242.6484" fill="none" rx="3" ry="3" style="stroke:#038048;stroke-width:1.0;"/><text fill="#000000" font-family="sans-serif" font-size="14" lengthAdjust="spacing" textLength="106" x="418.5" y="245.9951">String location</text><ellipse cx="409.5" cy="258.9453" fill="none" rx="3" ry="3" style="stroke:#038048;stroke-width:1.0;"/><text fill="#000000" font-family="sans-serif" font-size="14" lengthAdjust="spacing" textLength="82" x="418.5" y="262.292">Menu menu</text></g><!--class Diner--><g id="elem_Diner"><rect codeLine="51" fill="#F1F1F1" height="72.5938" id="Diner" rx="2.5" ry="2.5" style="stroke:#181818;stroke-width:0.5;" width="324" x="565.5" y="197"/><ellipse cx="703.75" cy="213" fill="#ADD1B2" rx="11" ry="11" style="stroke:#181818;stroke-width:1.0;"/><path d="M706.0938,208.6719 C705.1563,208.2344 704.5625,208.0938 703.6875,208.0938 C701.0625,208.0938 699.0625,210.1719 699.0625,212.8906 L699.0625,214.0156 C699.0625,216.5938 701.1719,218.4844 704.0625,218.4844 C705.2813,218.4844 706.4375,218.1875 707.1875,217.6406 C707.7656,217.2344 708.0938,216.7813 708.0938,216.3906 C708.0938,215.9375 707.7031,215.5469 707.2344,215.5469 C707.0156,215.5469 706.8125,215.625 706.625,215.8125 C706.1719,216.2969 706.1719,216.2969 705.9844,216.3906 C705.5625,216.6563 704.875,216.7813 704.1094,216.7813 C702.0625,216.7813 700.7656,215.6875 700.7656,213.9844 L700.7656,212.8906 C700.7656,211.1094 702.0156,209.7969 703.75,209.7969 C704.3281,209.7969 704.9375,209.9531 705.4063,210.2031 C705.8906,210.4844 706.0625,210.7031 706.1563,211.1094 C706.2188,211.5156 706.25,211.6406 706.3906,211.7656 C706.5313,211.9063 706.7656,212.0156 706.9844,212.0156 C707.25,212.0156 707.5156,211.875 707.6875,211.6563 C707.7969,211.5 707.8281,211.3125 707.8281,210.8906 L707.8281,209.4688 C707.8281,209.0313 707.8125,208.9063 707.7188,208.75 C707.5625,208.4844 707.2813,208.3438 706.9844,208.3438 C706.6875,208.3438 706.4844,208.4375 706.2656,208.75 L706.0938,208.6719 Z " fill="#000000"/><text fill="#000000" font-family="sans-serif" font-size="14" lengthAdjust="spacing" textLength="39" x="724.25" y="217.8467">Diner</text><line style="stroke:#181818;stroke-width:0.5;" x1="566.5" x2="888.5" y1="229" y2="229"/><ellipse cx="576.5" cy="242.6484" fill="none" rx="3" ry="3" style="stroke:#038048;stroke-width:1.0;"/><text fill="#000000" font-family="sans-serif" font-size="14" lengthAdjust="spacing" textLength="186" x="585.5" y="245.9951">String dietaryPreferences</text><ellipse cx="576.5" cy="258.9453" fill="none" rx="3" ry="3" style="stroke:#038048;stroke-width:1.0;"/><text fill="#000000" font-family="sans-serif" font-size="14" lengthAdjust="spacing" textLength="298" x="585.5" y="262.292">List&lt;PaymentMethod&gt; paymentMethods</text></g><!--class Menu--><g id="elem_Menu"><rect codeLine="56" fill="#F1F1F1" height="56.2969" id="Menu" rx="2.5" ry="2.5" style="stroke:#181818;stroke-width:0.5;" width="191" x="369" y="396"/><ellipse cx="441.25" cy="412" fill="#ADD1B2" rx="11" ry="11" style="stroke:#181818;stroke-width:1.0;"/><path d="M443.5938,407.6719 C442.6563,407.2344 442.0625,407.0938 441.1875,407.0938 C438.5625,407.0938 436.5625,409.1719 436.5625,411.8906 L436.5625,413.0156 C436.5625,415.5938 438.6719,417.4844 441.5625,417.4844 C442.7813,417.4844 443.9375,417.1875 444.6875,416.6406 C445.2656,416.2344 445.5938,415.7813 445.5938,415.3906 C445.5938,414.9375 445.2031,414.5469 444.7344,414.5469 C444.5156,414.5469 444.3125,414.625 444.125,414.8125 C443.6719,415.2969 443.6719,415.2969 443.4844,415.3906 C443.0625,415.6563 442.375,415.7813 441.6094,415.7813 C439.5625,415.7813 438.2656,414.6875 438.2656,412.9844 L438.2656,411.8906 C438.2656,410.1094 439.5156,408.7969 441.25,408.7969 C441.8281,408.7969 442.4375,408.9531 442.9063,409.2031 C443.3906,409.4844 443.5625,409.7031 443.6563,410.1094 C443.7188,410.5156 443.75,410.6406 443.8906,410.7656 C444.0313,410.9063 444.2656,411.0156 444.4844,411.0156 C444.75,411.0156 445.0156,410.875 445.1875,410.6563 C445.2969,410.5 445.3281,410.3125 445.3281,409.8906 L445.3281,408.4688 C445.3281,408.0313 445.3125,407.9063 445.2188,407.75 C445.0625,407.4844 444.7813,407.3438 444.4844,407.3438 C444.1875,407.3438 443.9844,407.4375 443.7656,407.75 L443.5938,407.6719 Z " fill="#000000"/><text fill="#000000" font-family="sans-serif" font-size="14" lengthAdjust="spacing" textLength="38" x="461.75" y="416.8467">Menu</text><line style="stroke:#181818;stroke-width:0.5;" x1="370" x2="559" y1="428" y2="428"/><ellipse cx="380" cy="441.6484" fill="none" rx="3" ry="3" style="stroke:#038048;stroke-width:1.0;"/><text fill="#000000" font-family="sans-serif" font-size="14" lengthAdjust="spacing" textLength="165" x="389" y="444.9951">List&lt;MenuItem&gt; items</text></g><!--class MenuItem--><g id="elem_MenuItem"><rect codeLine="60" fill="#F1F1F1" height="154.0781" id="MenuItem" rx="2.5" ry="2.5" style="stroke:#181818;stroke-width:0.5;" width="227" x="351" y="570"/><ellipse cx="424.25" cy="586" fill="#ADD1B2" rx="11" ry="11" style="stroke:#181818;stroke-width:1.0;"/><path d="M426.5938,581.6719 C425.6563,581.2344 425.0625,581.0938 424.1875,581.0938 C421.5625,581.0938 419.5625,583.1719 419.5625,585.8906 L419.5625,587.0156 C419.5625,589.5938 421.6719,591.4844 424.5625,591.4844 C425.7813,591.4844 426.9375,591.1875 427.6875,590.6406 C428.2656,590.2344 428.5938,589.7813 428.5938,589.3906 C428.5938,588.9375 428.2031,588.5469 427.7344,588.5469 C427.5156,588.5469 427.3125,588.625 427.125,588.8125 C426.6719,589.2969 426.6719,589.2969 426.4844,589.3906 C426.0625,589.6563 425.375,589.7813 424.6094,589.7813 C422.5625,589.7813 421.2656,588.6875 421.2656,586.9844 L421.2656,585.8906 C421.2656,584.1094 422.5156,582.7969 424.25,582.7969 C424.8281,582.7969 425.4375,582.9531 425.9063,583.2031 C426.3906,583.4844 426.5625,583.7031 426.6563,584.1094 C426.7188,584.5156 426.75,584.6406 426.8906,584.7656 C427.0313,584.9063 427.2656,585.0156 427.4844,585.0156 C427.75,585.0156 428.0156,584.875 428.1875,584.6563 C428.2969,584.5 428.3281,584.3125 428.3281,583.8906 L428.3281,582.4688 C428.3281,582.0313 428.3125,581.9063 428.2188,581.75 C428.0625,581.4844 427.7813,581.3438 427.4844,581.3438 C427.1875,581.3438 426.9844,581.4375 426.7656,581.75 L426.5938,581.6719 Z " fill="#000000"/><text fill="#000000" font-family="sans-serif" font-size="14" lengthAdjust="spacing" textLength="72" x="444.75" y="590.8467">MenuItem</text><line style="stroke:#181818;stroke-width:0.5;" x1="352" x2="577" y1="602" y2="602"/><ellipse cx="362" cy="615.6484" fill="none" rx="3" ry="3" style="stroke:#038048;stroke-width:1.0;"/><text fill="#000000" font-family="sans-serif" font-size="14" lengthAdjust="spacing" textLength="162" x="371" y="618.9951">String uniqueIdentifier</text><ellipse cx="362" cy="631.9453" fill="none" rx="3" ry="3" style="stroke:#038048;stroke-width:1.0;"/><text fill="#000000" font-family="sans-serif" font-size="14" lengthAdjust="spacing" textLength="88" x="371" y="635.292">String name</text><ellipse cx="362" cy="648.2422" fill="none" rx="3" ry="3" style="stroke:#038048;stroke-width:1.0;"/><text fill="#000000" font-family="sans-serif" font-size="14" lengthAdjust="spacing" textLength="130" x="371" y="651.5889">String ingredients</text><ellipse cx="362" cy="664.5391" fill="none" rx="3" ry="3" style="stroke:#038048;stroke-width:1.0;"/><text fill="#000000" font-family="sans-serif" font-size="14" lengthAdjust="spacing" textLength="201" x="371" y="667.8857">String dietarySpecifications</text><ellipse cx="362" cy="680.8359" fill="none" rx="3" ry="3" style="stroke:#038048;stroke-width:1.0;"/><text fill="#000000" font-family="sans-serif" font-size="14" lengthAdjust="spacing" textLength="134" x="371" y="684.1826">Category category</text><ellipse cx="362" cy="697.1328" fill="none" rx="3" ry="3" style="stroke:#038048;stroke-width:1.0;"/><text fill="#000000" font-family="sans-serif" font-size="14" lengthAdjust="spacing" textLength="92" x="371" y="700.4795">Double price</text><ellipse cx="362" cy="713.4297" fill="none" rx="3" ry="3" style="stroke:#038048;stroke-width:1.0;"/><text fill="#000000" font-family="sans-serif" font-size="14" lengthAdjust="spacing" textLength="138" x="371" y="716.7764">Boolean isAvailable</text></g><!--class Order--><g id="elem_Order"><rect codeLine="70" fill="#F1F1F1" height="137.7813" id="Order" rx="2.5" ry="2.5" style="stroke:#181818;stroke-width:0.5;" width="251" x="602" y="355"/><ellipse cx="702.75" cy="371" fill="#ADD1B2" rx="11" ry="11" style="stroke:#181818;stroke-width:1.0;"/><path d="M705.0938,366.6719 C704.1563,366.2344 703.5625,366.0938 702.6875,366.0938 C700.0625,366.0938 698.0625,368.1719 698.0625,370.8906 L698.0625,372.0156 C698.0625,374.5938 700.1719,376.4844 703.0625,376.4844 C704.2813,376.4844 705.4375,376.1875 706.1875,375.6406 C706.7656,375.2344 707.0938,374.7813 707.0938,374.3906 C707.0938,373.9375 706.7031,373.5469 706.2344,373.5469 C706.0156,373.5469 705.8125,373.625 705.625,373.8125 C705.1719,374.2969 705.1719,374.2969 704.9844,374.3906 C704.5625,374.6563 703.875,374.7813 703.1094,374.7813 C701.0625,374.7813 699.7656,373.6875 699.7656,371.9844 L699.7656,370.8906 C699.7656,369.1094 701.0156,367.7969 702.75,367.7969 C703.3281,367.7969 703.9375,367.9531 704.4063,368.2031 C704.8906,368.4844 705.0625,368.7031 705.1563,369.1094 C705.2188,369.5156 705.25,369.6406 705.3906,369.7656 C705.5313,369.9063 705.7656,370.0156 705.9844,370.0156 C706.25,370.0156 706.5156,369.875 706.6875,369.6563 C706.7969,369.5 706.8281,369.3125 706.8281,368.8906 L706.8281,367.4688 C706.8281,367.0313 706.8125,366.9063 706.7188,366.75 C706.5625,366.4844 706.2813,366.3438 705.9844,366.3438 C705.6875,366.3438 705.4844,366.4375 705.2656,366.75 L705.0938,366.6719 Z " fill="#000000"/><text fill="#000000" font-family="sans-serif" font-size="14" lengthAdjust="spacing" textLength="41" x="723.25" y="375.8467">Order</text><line style="stroke:#181818;stroke-width:0.5;" x1="603" x2="852" y1="387" y2="387"/><ellipse cx="613" cy="400.6484" fill="none" rx="3" ry="3" style="stroke:#038048;stroke-width:1.0;"/><text fill="#000000" font-family="sans-serif" font-size="14" lengthAdjust="spacing" textLength="162" x="622" y="403.9951">String uniqueIdentifier</text><ellipse cx="613" cy="416.9453" fill="none" rx="3" ry="3" style="stroke:#038048;stroke-width:1.0;"/><text fill="#000000" font-family="sans-serif" font-size="14" lengthAdjust="spacing" textLength="165" x="622" y="420.292">List&lt;MenuItem&gt; items</text><ellipse cx="613" cy="433.2422" fill="none" rx="3" ry="3" style="stroke:#038048;stroke-width:1.0;"/><text fill="#000000" font-family="sans-serif" font-size="14" lengthAdjust="spacing" textLength="155" x="622" y="436.5889">DateTime timestamp</text><ellipse cx="613" cy="449.5391" fill="none" rx="3" ry="3" style="stroke:#038048;stroke-width:1.0;"/><text fill="#000000" font-family="sans-serif" font-size="14" lengthAdjust="spacing" textLength="143" x="622" y="452.8857">String tableNumber</text><ellipse cx="613" cy="465.8359" fill="none" rx="3" ry="3" style="stroke:#038048;stroke-width:1.0;"/><text fill="#000000" font-family="sans-serif" font-size="14" lengthAdjust="spacing" textLength="176" x="622" y="469.1826">OrderStatus orderStatus</text><ellipse cx="613" cy="482.1328" fill="none" rx="3" ry="3" style="stroke:#038048;stroke-width:1.0;"/><text fill="#000000" font-family="sans-serif" font-size="14" lengthAdjust="spacing" textLength="225" x="622" y="485.4795">PaymentStatus paymentStatus</text></g><!--class Payment--><g id="elem_Payment"><rect codeLine="79" fill="#F1F1F1" height="88.8906" id="Payment" rx="2.5" ry="2.5" style="stroke:#181818;stroke-width:0.5;" width="288" x="613.5" y="602.5"/><ellipse cx="721.25" cy="618.5" fill="#ADD1B2" rx="11" ry="11" style="stroke:#181818;stroke-width:1.0;"/><path d="M723.5938,614.1719 C722.6563,613.7344 722.0625,613.5938 721.1875,613.5938 C718.5625,613.5938 716.5625,615.6719 716.5625,618.3906 L716.5625,619.5156 C716.5625,622.0938 718.6719,623.9844 721.5625,623.9844 C722.7813,623.9844 723.9375,623.6875 724.6875,623.1406 C725.2656,622.7344 725.5938,622.2813 725.5938,621.8906 C725.5938,621.4375 725.2031,621.0469 724.7344,621.0469 C724.5156,621.0469 724.3125,621.125 724.125,621.3125 C723.6719,621.7969 723.6719,621.7969 723.4844,621.8906 C723.0625,622.1563 722.375,622.2813 721.6094,622.2813 C719.5625,622.2813 718.2656,621.1875 718.2656,619.4844 L718.2656,618.3906 C718.2656,616.6094 719.5156,615.2969 721.25,615.2969 C721.8281,615.2969 722.4375,615.4531 722.9063,615.7031 C723.3906,615.9844 723.5625,616.2031 723.6563,616.6094 C723.7188,617.0156 723.75,617.1406 723.8906,617.2656 C724.0313,617.4063 724.2656,617.5156 724.4844,617.5156 C724.75,617.5156 725.0156,617.375 725.1875,617.1563 C725.2969,617 725.3281,616.8125 725.3281,616.3906 L725.3281,614.9688 C725.3281,614.5313 725.3125,614.4063 725.2188,614.25 C725.0625,613.9844 724.7813,613.8438 724.4844,613.8438 C724.1875,613.8438 723.9844,613.9375 723.7656,614.25 L723.5938,614.1719 Z " fill="#000000"/><text fill="#000000" font-family="sans-serif" font-size="14" lengthAdjust="spacing" textLength="64" x="741.75" y="623.3467">Payment</text><line style="stroke:#181818;stroke-width:0.5;" x1="614.5" x2="900.5" y1="634.5" y2="634.5"/><ellipse cx="624.5" cy="648.1484" fill="none" rx="3" ry="3" style="stroke:#038048;stroke-width:1.0;"/><text fill="#000000" font-family="sans-serif" font-size="14" lengthAdjust="spacing" textLength="110" x="633.5" y="651.4951">Double amount</text><ellipse cx="624.5" cy="664.4453" fill="none" rx="3" ry="3" style="stroke:#038048;stroke-width:1.0;"/><text fill="#000000" font-family="sans-serif" font-size="14" lengthAdjust="spacing" textLength="243" x="633.5" y="667.792">PaymentMethod paymentMethod</text><ellipse cx="624.5" cy="680.7422" fill="none" rx="3" ry="3" style="stroke:#038048;stroke-width:1.0;"/><text fill="#000000" font-family="sans-serif" font-size="14" lengthAdjust="spacing" textLength="262" x="633.5" y="684.0889">TransactionStatus transactionStatus</text></g><!--reverse link User to Restaurant--><g id="link_User_Restaurant"><path codeLine="86" d="M581.4784,124.3268 C551.9444,151.6378 529.635,172.268 503.159,196.751 " fill="none" id="User-backto-Restaurant" style="stroke:#181818;stroke-width:1.0;"/><polygon fill="none" points="594.694,112.106,577.4048,119.9217,585.552,128.732,594.694,112.106" style="stroke:#181818;stroke-width:1.0;"/><text fill="#000000" font-family="sans-serif" font-size="13" lengthAdjust="spacing" textLength="71" x="558.5" y="155.0669">Inheritance</text></g><!--reverse link User to Diner--><g id="link_User_Diner"><path codeLine="87" d="M680.9576,128.535 C693.1836,155.846 700.536,172.268 711.496,196.751 " fill="none" id="User-backto-Diner" style="stroke:#181818;stroke-width:1.0;"/><polygon fill="none" points="673.603,112.106,675.4812,130.9865,686.4339,126.0834,673.603,112.106" style="stroke:#181818;stroke-width:1.0;"/><text fill="#000000" font-family="sans-serif" font-size="13" lengthAdjust="spacing" textLength="71" x="694.5" y="155.0669">Inheritance</text></g><!--reverse link Restaurant to Menu--><g id="link_Restaurant_Menu"><path codeLine="88" d="M464.5,282.399 C464.5,318.931 464.5,362.747 464.5,395.784 " fill="none" id="Restaurant-backto-Menu" style="stroke:#181818;stroke-width:1.0;"/><polygon fill="#181818" points="464.5,270.399,460.5,276.399,464.5,282.399,468.5,276.399,464.5,270.399" style="stroke:#181818;stroke-width:1.0;"/><text fill="#000000" font-family="sans-serif" font-size="13" lengthAdjust="spacing" textLength="23" x="465.5" y="321.0669">has</text><text fill="#000000" font-family="sans-serif" font-size="13" lengthAdjust="spacing" textLength="8" x="455.8625" y="289.5849">1</text><text fill="#000000" font-family="sans-serif" font-size="13" lengthAdjust="spacing" textLength="8" x="455.625" y="385.0201">1</text></g><!--reverse link Menu to MenuItem--><g id="link_Menu_MenuItem"><path codeLine="89" d="M464.5,464.099 C464.5,493.26 464.5,528.947 464.5,569.732 " fill="none" id="Menu-backto-MenuItem" style="stroke:#181818;stroke-width:1.0;"/><polygon fill="#181818" points="464.5,452.099,460.5,458.099,464.5,464.099,468.5,458.099,464.5,452.099" style="stroke:#181818;stroke-width:1.0;"/><text fill="#000000" font-family="sans-serif" font-size="13" lengthAdjust="spacing" textLength="54" x="465.5" y="536.0669">contains</text><text fill="#000000" font-family="sans-serif" font-size="13" lengthAdjust="spacing" textLength="8" x="455.575" y="472.3792">1</text><text fill="#000000" font-family="sans-serif" font-size="13" lengthAdjust="spacing" textLength="7" x="457.1773" y="558.9869">*</text></g><!--reverse link Diner to Order--><g id="link_Diner_Order"><path codeLine="90" d="M727.5,282.399 C727.5,306.22 727.5,326.239 727.5,354.796 " fill="none" id="Diner-backto-Order" style="stroke:#181818;stroke-width:1.0;"/><polygon fill="#181818" points="727.5,270.399,723.5,276.399,727.5,282.399,731.5,276.399,727.5,270.399" style="stroke:#181818;stroke-width:1.0;"/><text fill="#000000" font-family="sans-serif" font-size="13" lengthAdjust="spacing" textLength="41" x="728.5" y="321.0669">places</text><text fill="#000000" font-family="sans-serif" font-size="13" lengthAdjust="spacing" textLength="8" x="718.8625" y="289.5849">1</text><text fill="#000000" font-family="sans-serif" font-size="13" lengthAdjust="spacing" textLength="7" x="720.1391" y="343.9709">*</text></g><!--link Order to MenuItem--><g id="link_Order_MenuItem"><path codeLine="91" d="M646.445,493.111 C617.618,517.334 584.978,544.762 555.382,569.631 " fill="none" id="Order-MenuItem" style="stroke:#181818;stroke-width:1.0;"/><text fill="#000000" font-family="sans-serif" font-size="13" lengthAdjust="spacing" textLength="52" x="605.5" y="536.0669">includes</text><text fill="#000000" font-family="sans-serif" font-size="13" lengthAdjust="spacing" textLength="7" x="631.1216" y="512.7366">*</text><text fill="#000000" font-family="sans-serif" font-size="13" lengthAdjust="spacing" textLength="7" x="556.4375" y="558.8766">*</text></g><!--reverse link Order to Payment--><g id="link_Order_Payment"><path codeLine="92" d="M738.3602,505.0019 C743.1982,540.6399 747.363,571.321 751.592,602.481 " fill="none" id="Order-backto-Payment" style="stroke:#181818;stroke-width:1.0;"/><polygon fill="#181818" points="736.746,493.111,733.5895,499.5945,738.3602,505.0019,741.5168,498.5184,736.746,493.111" style="stroke:#181818;stroke-width:1.0;"/><text fill="#000000" font-family="sans-serif" font-size="13" lengthAdjust="spacing" textLength="50" x="743.5" y="536.0669">initiates</text><text fill="#000000" font-family="sans-serif" font-size="13" lengthAdjust="spacing" textLength="8" x="729.2624" y="512.7366">1</text><text fill="#000000" font-family="sans-serif" font-size="13" lengthAdjust="spacing" textLength="8" x="742.0129" y="591.2767">1</text></g><!--SRC=[bLDDRzim3BtxLx3POMtNOjWr209uZXCOI1t3SGxRfL1jjX5covua3msw_VTHaXChRGzRW2HwuYFvn8-B2X-vG2ZOGusNWZLuKw4ghw2icL9WBe0fc9ZB2SncS5dSV5WkG_fSmNmUN0p-dUGDauVx7tYuVBw2MJz_ddtkvy6ULmWDwdrRAGUKHecjFdIeWk0ZtDv2BFe69TEy5OfmW8HX8okKMyrqh-0b080iJXT9kZB79BtFyiqgZxTR0wFDNRQEYtXXGPX6yPhEVm8NA6E71eNsG-tIB4mi-_YVnyjTkl2y2ic4OgNHv7jkTr54MPUxjK7BC5cxh4TnhvBUsOSxroZCBJNCIEnz5dupOBNPh0PqT8sOngTM7fmNiUCY-Hxd1iHfaSUnEIr8H9mNnicMC3BTGbizzg2q9EL31tSAfGlrwUMHOrtzWQsMN3n1B_ZF7fEAT7AoICiPRARlFkxshS2qRnxEQTWmNXiHBbUEIhEUAgU7Z0EjRalRNNjtHw-aYH3zwBUW2PBdBXL7JVEKINoaSH4b3OknhhdIixFYpg7peHgZsaGlevl1YSPc3fn-Nn6DuLp1_vI7lX99ij3gdKTiEomfXAk18voQN0u7UxjeUzf2iqkb2_-rRMja0hWAVr6bpOwEiks6_8FcTnzlqr7kWjE2Q_gXpZMT7qkRR5xB_OLinxErdUzOvwDHxq0Q50zlPKtR2-q76NRchAlM_dObzUkRqpxaMBjgxtbdjyAkmUotDPs6T0g9sAFacj60UHGtZ-TMpstoPGBNH3F_TiYci6SgiCUJxNeopjKKobPengdvBhJFScsSGbSpC-KE6iFRA5oKTL-D94_7iRY6n3Mdpgg_]--></g></svg>