<?xml version="1.0" encoding="us-ascii" standalone="no"?><svg xmlns="http://www.w3.org/2000/svg" xmlns:xlink="http://www.w3.org/1999/xlink" contentStyleType="text/css" height="779px" preserveAspectRatio="none" style="width:1225px;height:779px;background:#FFFFFF;" version="1.1" viewBox="0 0 1225 779" width="1225px" zoomAndPan="magnify"><defs/><g><!--class PAYMENT_METHOD--><g id="elem_PAYMENT_METHOD"><rect codeLine="1" fill="#F1F1F1" height="96.8906" id="PAYMENT_METHOD" rx="2.5" ry="2.5" style="stroke:#181818;stroke-width:0.5;" width="169" x="7" y="23"/><ellipse cx="22" cy="39" fill="#EB937F" rx="11" ry="11" style="stroke:#181818;stroke-width:1.0;"/><path d="M20.7969,39.875 L22.25,39.875 L22.25,39.9844 C22.25,40.3906 22.2813,40.5469 22.3594,40.7031 C22.5156,40.9531 22.7969,41.1094 23.0938,41.1094 C23.3438,41.1094 23.6094,40.9688 23.7656,40.75 C23.8906,40.5938 23.9219,40.4375 23.9219,39.9844 L23.9219,38.0625 C23.9219,37.9063 23.9219,37.8594 23.9063,37.7031 C23.8438,37.2344 23.5313,36.9219 23.0781,36.9219 C22.8281,36.9219 22.5625,37.0625 22.3906,37.2813 C22.2813,37.4531 22.25,37.6094 22.25,38.0625 L22.25,38.1875 L20.7969,38.1875 L20.7969,35.7813 L24.7813,35.7813 L24.7813,36.6406 C24.7813,37.0469 24.8125,37.2188 24.8906,37.375 C25.0625,37.625 25.3438,37.7813 25.625,37.7813 C25.8906,37.7813 26.1563,37.6406 26.3281,37.4219 C26.4375,37.25 26.4688,37.1094 26.4688,36.6406 L26.4688,34.0938 L18.8438,34.0938 C18.4063,34.0938 18.2813,34.1094 18.125,34.2031 C17.875,34.3594 17.7188,34.6563 17.7188,34.9375 C17.7188,35.2188 17.8594,35.4688 18.0781,35.6406 C18.2344,35.75 18.4219,35.7813 18.8438,35.7813 L19.0938,35.7813 L19.0938,42.2969 L18.8438,42.2969 C18.4375,42.2969 18.2813,42.3125 18.125,42.4219 C17.875,42.5938 17.7188,42.8594 17.7188,43.1563 C17.7188,43.4219 17.8594,43.6719 18.0781,43.8281 C18.2188,43.9531 18.4531,44 18.8438,44 L26.8438,44 L26.8438,41.4219 C26.8438,40.9844 26.8125,40.8438 26.7344,40.6875 C26.5625,40.4375 26.2813,40.2813 26,40.2813 C25.7344,40.2813 25.4688,40.3906 25.2969,40.6406 C25.1875,40.7969 25.1563,40.9375 25.1563,41.4219 L25.1563,42.2969 L20.7969,42.2969 L20.7969,39.875 Z " fill="#000000"/><text fill="#000000" font-family="sans-serif" font-size="14" lengthAdjust="spacing" textLength="137" x="36" y="43.8467">PAYMENT_METHOD</text><line style="stroke:#181818;stroke-width:0.5;" x1="8" x2="175" y1="55" y2="55"/><text fill="#000000" font-family="sans-serif" font-size="14" lengthAdjust="spacing" textLength="80" x="13" y="71.9951">APPLE_PAY</text><text fill="#000000" font-family="sans-serif" font-size="14" lengthAdjust="spacing" textLength="96" x="13" y="88.292">GOOGLE_PAY</text><text fill="#000000" font-family="sans-serif" font-size="14" lengthAdjust="spacing" textLength="41" x="13" y="104.5889">CARD</text><line style="stroke:#181818;stroke-width:0.5;" x1="8" x2="175" y1="111.8906" y2="111.8906"/></g><!--class PAYMENT_STATUS--><g id="elem_PAYMENT_STATUS"><rect codeLine="7" fill="#F1F1F1" height="96.8906" id="PAYMENT_STATUS" rx="2.5" ry="2.5" style="stroke:#181818;stroke-width:0.5;" width="162" x="211.5" y="23"/><ellipse cx="226.5" cy="39" fill="#EB937F" rx="11" ry="11" style="stroke:#181818;stroke-width:1.0;"/><path d="M225.2969,39.875 L226.75,39.875 L226.75,39.9844 C226.75,40.3906 226.7813,40.5469 226.8594,40.7031 C227.0156,40.9531 227.2969,41.1094 227.5938,41.1094 C227.8438,41.1094 228.1094,40.9688 228.2656,40.75 C228.3906,40.5938 228.4219,40.4375 228.4219,39.9844 L228.4219,38.0625 C228.4219,37.9063 228.4219,37.8594 228.4063,37.7031 C228.3438,37.2344 228.0313,36.9219 227.5781,36.9219 C227.3281,36.9219 227.0625,37.0625 226.8906,37.2813 C226.7813,37.4531 226.75,37.6094 226.75,38.0625 L226.75,38.1875 L225.2969,38.1875 L225.2969,35.7813 L229.2813,35.7813 L229.2813,36.6406 C229.2813,37.0469 229.3125,37.2188 229.3906,37.375 C229.5625,37.625 229.8438,37.7813 230.125,37.7813 C230.3906,37.7813 230.6563,37.6406 230.8281,37.4219 C230.9375,37.25 230.9688,37.1094 230.9688,36.6406 L230.9688,34.0938 L223.3438,34.0938 C222.9063,34.0938 222.7813,34.1094 222.625,34.2031 C222.375,34.3594 222.2188,34.6563 222.2188,34.9375 C222.2188,35.2188 222.3594,35.4688 222.5781,35.6406 C222.7344,35.75 222.9219,35.7813 223.3438,35.7813 L223.5938,35.7813 L223.5938,42.2969 L223.3438,42.2969 C222.9375,42.2969 222.7813,42.3125 222.625,42.4219 C222.375,42.5938 222.2188,42.8594 222.2188,43.1563 C222.2188,43.4219 222.3594,43.6719 222.5781,43.8281 C222.7188,43.9531 222.9531,44 223.3438,44 L231.3438,44 L231.3438,41.4219 C231.3438,40.9844 231.3125,40.8438 231.2344,40.6875 C231.0625,40.4375 230.7813,40.2813 230.5,40.2813 C230.2344,40.2813 229.9688,40.3906 229.7969,40.6406 C229.6875,40.7969 229.6563,40.9375 229.6563,41.4219 L229.6563,42.2969 L225.2969,42.2969 L225.2969,39.875 Z " fill="#000000"/><text fill="#000000" font-family="sans-serif" font-size="14" lengthAdjust="spacing" textLength="130" x="240.5" y="43.8467">PAYMENT_STATUS</text><line style="stroke:#181818;stroke-width:0.5;" x1="212.5" x2="372.5" y1="55" y2="55"/><text fill="#000000" font-family="sans-serif" font-size="14" lengthAdjust="spacing" textLength="53" x="217.5" y="71.9951">UNPAID</text><text fill="#000000" font-family="sans-serif" font-size="14" lengthAdjust="spacing" textLength="34" x="217.5" y="88.292">PAID</text><text fill="#000000" font-family="sans-serif" font-size="14" lengthAdjust="spacing" textLength="77" x="217.5" y="104.5889">REFUNDED</text><line style="stroke:#181818;stroke-width:0.5;" x1="212.5" x2="372.5" y1="111.8906" y2="111.8906"/></g><!--class ORDER_STATUS--><g id="elem_ORDER_STATUS"><rect codeLine="13" fill="#F1F1F1" height="113.1875" id="ORDER_STATUS" rx="2.5" ry="2.5" style="stroke:#181818;stroke-width:0.5;" width="145" x="19" y="197"/><ellipse cx="34" cy="213" fill="#EB937F" rx="11" ry="11" style="stroke:#181818;stroke-width:1.0;"/><path d="M32.7969,213.875 L34.25,213.875 L34.25,213.9844 C34.25,214.3906 34.2813,214.5469 34.3594,214.7031 C34.5156,214.9531 34.7969,215.1094 35.0938,215.1094 C35.3438,215.1094 35.6094,214.9688 35.7656,214.75 C35.8906,214.5938 35.9219,214.4375 35.9219,213.9844 L35.9219,212.0625 C35.9219,211.9063 35.9219,211.8594 35.9063,211.7031 C35.8438,211.2344 35.5313,210.9219 35.0781,210.9219 C34.8281,210.9219 34.5625,211.0625 34.3906,211.2813 C34.2813,211.4531 34.25,211.6094 34.25,212.0625 L34.25,212.1875 L32.7969,212.1875 L32.7969,209.7813 L36.7813,209.7813 L36.7813,210.6406 C36.7813,211.0469 36.8125,211.2188 36.8906,211.375 C37.0625,211.625 37.3438,211.7813 37.625,211.7813 C37.8906,211.7813 38.1563,211.6406 38.3281,211.4219 C38.4375,211.25 38.4688,211.1094 38.4688,210.6406 L38.4688,208.0938 L30.8438,208.0938 C30.4063,208.0938 30.2813,208.1094 30.125,208.2031 C29.875,208.3594 29.7188,208.6563 29.7188,208.9375 C29.7188,209.2188 29.8594,209.4688 30.0781,209.6406 C30.2344,209.75 30.4219,209.7813 30.8438,209.7813 L31.0938,209.7813 L31.0938,216.2969 L30.8438,216.2969 C30.4375,216.2969 30.2813,216.3125 30.125,216.4219 C29.875,216.5938 29.7188,216.8594 29.7188,217.1563 C29.7188,217.4219 29.8594,217.6719 30.0781,217.8281 C30.2188,217.9531 30.4531,218 30.8438,218 L38.8438,218 L38.8438,215.4219 C38.8438,214.9844 38.8125,214.8438 38.7344,214.6875 C38.5625,214.4375 38.2813,214.2813 38,214.2813 C37.7344,214.2813 37.4688,214.3906 37.2969,214.6406 C37.1875,214.7969 37.1563,214.9375 37.1563,215.4219 L37.1563,216.2969 L32.7969,216.2969 L32.7969,213.875 Z " fill="#000000"/><text fill="#000000" font-family="sans-serif" font-size="14" lengthAdjust="spacing" textLength="113" x="48" y="217.8467">ORDER_STATUS</text><line style="stroke:#181818;stroke-width:0.5;" x1="20" x2="163" y1="229" y2="229"/><text fill="#000000" font-family="sans-serif" font-size="14" lengthAdjust="spacing" textLength="64" x="25" y="245.9951">PENDING</text><text fill="#000000" font-family="sans-serif" font-size="14" lengthAdjust="spacing" textLength="99" x="25" y="262.292">IN_PROGRESS</text><text fill="#000000" font-family="sans-serif" font-size="14" lengthAdjust="spacing" textLength="88" x="25" y="278.5889">COMPLETED</text><text fill="#000000" font-family="sans-serif" font-size="14" lengthAdjust="spacing" textLength="85" x="25" y="294.8857">CANCELLED</text><line style="stroke:#181818;stroke-width:0.5;" x1="20" x2="163" y1="302.1875" y2="302.1875"/></g><!--class User--><g id="elem_User"><rect codeLine="20" fill="#F1F1F1" height="129.4844" id="User" rx="2.5" ry="2.5" style="stroke:#181818;stroke-width:0.5;" width="181" x="606" y="7"/><ellipse cx="676.75" cy="23" fill="#ADD1B2" rx="11" ry="11" style="stroke:#181818;stroke-width:1.0;"/><path d="M679.0938,18.6719 C678.1563,18.2344 677.5625,18.0938 676.6875,18.0938 C674.0625,18.0938 672.0625,20.1719 672.0625,22.8906 L672.0625,24.0156 C672.0625,26.5938 674.1719,28.4844 677.0625,28.4844 C678.2813,28.4844 679.4375,28.1875 680.1875,27.6406 C680.7656,27.2344 681.0938,26.7813 681.0938,26.3906 C681.0938,25.9375 680.7031,25.5469 680.2344,25.5469 C680.0156,25.5469 679.8125,25.625 679.625,25.8125 C679.1719,26.2969 679.1719,26.2969 678.9844,26.3906 C678.5625,26.6563 677.875,26.7813 677.1094,26.7813 C675.0625,26.7813 673.7656,25.6875 673.7656,23.9844 L673.7656,22.8906 C673.7656,21.1094 675.0156,19.7969 676.75,19.7969 C677.3281,19.7969 677.9375,19.9531 678.4063,20.2031 C678.8906,20.4844 679.0625,20.7031 679.1563,21.1094 C679.2188,21.5156 679.25,21.6406 679.3906,21.7656 C679.5313,21.9063 679.7656,22.0156 679.9844,22.0156 C680.25,22.0156 680.5156,21.875 680.6875,21.6563 C680.7969,21.5 680.8281,21.3125 680.8281,20.8906 L680.8281,19.4688 C680.8281,19.0313 680.8125,18.9063 680.7188,18.75 C680.5625,18.4844 680.2813,18.3438 679.9844,18.3438 C679.6875,18.3438 679.4844,18.4375 679.2656,18.75 L679.0938,18.6719 Z " fill="#000000"/><text fill="#000000" font-family="sans-serif" font-size="14" lengthAdjust="spacing" textLength="31" x="697.25" y="27.8467">User</text><line style="stroke:#181818;stroke-width:0.5;" x1="607" x2="786" y1="39" y2="39"/><ellipse cx="617" cy="52.6484" fill="none" rx="3" ry="3" style="stroke:#038048;stroke-width:1.0;"/><text fill="#000000" font-family="sans-serif" font-size="14" lengthAdjust="spacing" textLength="91" x="626" y="55.9951">name: string</text><ellipse cx="617" cy="68.9453" fill="none" rx="3" ry="3" style="stroke:#038048;stroke-width:1.0;"/><text fill="#000000" font-family="sans-serif" font-size="14" lengthAdjust="spacing" textLength="154" x="626" y="72.292">phoneNumber: string</text><ellipse cx="617" cy="85.2422" fill="none" rx="3" ry="3" style="stroke:#038048;stroke-width:1.0;"/><text fill="#000000" font-family="sans-serif" font-size="14" lengthAdjust="spacing" textLength="90" x="626" y="88.5889">email: string</text><line style="stroke:#181818;stroke-width:0.5;" x1="607" x2="786" y1="95.8906" y2="95.8906"/><ellipse cx="617" cy="109.5391" fill="#84BE84" rx="3" ry="3" style="stroke:#038048;stroke-width:1.0;"/><text fill="#000000" font-family="sans-serif" font-size="14" lengthAdjust="spacing" textLength="155" x="626" y="112.8857">createAccount(): void</text><ellipse cx="617" cy="125.8359" fill="#84BE84" rx="3" ry="3" style="stroke:#038048;stroke-width:1.0;"/><text fill="#000000" font-family="sans-serif" font-size="14" lengthAdjust="spacing" textLength="142" x="626" y="129.1826">authenticate(): void</text></g><!--class Restaurant--><g id="elem_Restaurant"><rect codeLine="28" fill="#F1F1F1" height="113.1875" id="Restaurant" rx="2.5" ry="2.5" style="stroke:#181818;stroke-width:0.5;" width="451" x="314" y="197"/><ellipse cx="495.75" cy="213" fill="#ADD1B2" rx="11" ry="11" style="stroke:#181818;stroke-width:1.0;"/><path d="M498.0938,208.6719 C497.1563,208.2344 496.5625,208.0938 495.6875,208.0938 C493.0625,208.0938 491.0625,210.1719 491.0625,212.8906 L491.0625,214.0156 C491.0625,216.5938 493.1719,218.4844 496.0625,218.4844 C497.2813,218.4844 498.4375,218.1875 499.1875,217.6406 C499.7656,217.2344 500.0938,216.7813 500.0938,216.3906 C500.0938,215.9375 499.7031,215.5469 499.2344,215.5469 C499.0156,215.5469 498.8125,215.625 498.625,215.8125 C498.1719,216.2969 498.1719,216.2969 497.9844,216.3906 C497.5625,216.6563 496.875,216.7813 496.1094,216.7813 C494.0625,216.7813 492.7656,215.6875 492.7656,213.9844 L492.7656,212.8906 C492.7656,211.1094 494.0156,209.7969 495.75,209.7969 C496.3281,209.7969 496.9375,209.9531 497.4063,210.2031 C497.8906,210.4844 498.0625,210.7031 498.1563,211.1094 C498.2188,211.5156 498.25,211.6406 498.3906,211.7656 C498.5313,211.9063 498.7656,212.0156 498.9844,212.0156 C499.25,212.0156 499.5156,211.875 499.6875,211.6563 C499.7969,211.5 499.8281,211.3125 499.8281,210.8906 L499.8281,209.4688 C499.8281,209.0313 499.8125,208.9063 499.7188,208.75 C499.5625,208.4844 499.2813,208.3438 498.9844,208.3438 C498.6875,208.3438 498.4844,208.4375 498.2656,208.75 L498.0938,208.6719 Z " fill="#000000"/><text fill="#000000" font-family="sans-serif" font-size="14" lengthAdjust="spacing" textLength="79" x="516.25" y="217.8467">Restaurant</text><line style="stroke:#181818;stroke-width:0.5;" x1="315" x2="764" y1="229" y2="229"/><ellipse cx="325" cy="242.6484" fill="none" rx="3" ry="3" style="stroke:#038048;stroke-width:1.0;"/><text fill="#000000" font-family="sans-serif" font-size="14" lengthAdjust="spacing" textLength="109" x="334" y="245.9951">location: string</text><ellipse cx="325" cy="258.9453" fill="none" rx="3" ry="3" style="stroke:#038048;stroke-width:1.0;"/><text fill="#000000" font-family="sans-serif" font-size="14" lengthAdjust="spacing" textLength="87" x="334" y="262.292">menu: Menu</text><line style="stroke:#181818;stroke-width:0.5;" x1="315" x2="764" y1="269.5938" y2="269.5938"/><ellipse cx="325" cy="283.2422" fill="#84BE84" rx="3" ry="3" style="stroke:#038048;stroke-width:1.0;"/><text fill="#000000" font-family="sans-serif" font-size="14" lengthAdjust="spacing" textLength="425" x="334" y="286.5889">updateMenu(menuItem: MenuItem, operation: String): void</text><ellipse cx="325" cy="299.5391" fill="#84BE84" rx="3" ry="3" style="stroke:#038048;stroke-width:1.0;"/><text fill="#000000" font-family="sans-serif" font-size="14" lengthAdjust="spacing" textLength="304" x="334" y="302.8857">receivePayment(payment: Payment): void</text></g><!--class Diner--><g id="elem_Diner"><rect codeLine="35" fill="#F1F1F1" height="113.1875" id="Diner" rx="2.5" ry="2.5" style="stroke:#181818;stroke-width:0.5;" width="418" x="800.5" y="197"/><ellipse cx="985.75" cy="213" fill="#ADD1B2" rx="11" ry="11" style="stroke:#181818;stroke-width:1.0;"/><path d="M988.0938,208.6719 C987.1563,208.2344 986.5625,208.0938 985.6875,208.0938 C983.0625,208.0938 981.0625,210.1719 981.0625,212.8906 L981.0625,214.0156 C981.0625,216.5938 983.1719,218.4844 986.0625,218.4844 C987.2813,218.4844 988.4375,218.1875 989.1875,217.6406 C989.7656,217.2344 990.0938,216.7813 990.0938,216.3906 C990.0938,215.9375 989.7031,215.5469 989.2344,215.5469 C989.0156,215.5469 988.8125,215.625 988.625,215.8125 C988.1719,216.2969 988.1719,216.2969 987.9844,216.3906 C987.5625,216.6563 986.875,216.7813 986.1094,216.7813 C984.0625,216.7813 982.7656,215.6875 982.7656,213.9844 L982.7656,212.8906 C982.7656,211.1094 984.0156,209.7969 985.75,209.7969 C986.3281,209.7969 986.9375,209.9531 987.4063,210.2031 C987.8906,210.4844 988.0625,210.7031 988.1563,211.1094 C988.2188,211.5156 988.25,211.6406 988.3906,211.7656 C988.5313,211.9063 988.7656,212.0156 988.9844,212.0156 C989.25,212.0156 989.5156,211.875 989.6875,211.6563 C989.7969,211.5 989.8281,211.3125 989.8281,210.8906 L989.8281,209.4688 C989.8281,209.0313 989.8125,208.9063 989.7188,208.75 C989.5625,208.4844 989.2813,208.3438 988.9844,208.3438 C988.6875,208.3438 988.4844,208.4375 988.2656,208.75 L988.0938,208.6719 Z " fill="#000000"/><text fill="#000000" font-family="sans-serif" font-size="14" lengthAdjust="spacing" textLength="39" x="1006.25" y="217.8467">Diner</text><line style="stroke:#181818;stroke-width:0.5;" x1="801.5" x2="1217.5" y1="229" y2="229"/><ellipse cx="811.5" cy="242.6484" fill="none" rx="3" ry="3" style="stroke:#038048;stroke-width:1.0;"/><text fill="#000000" font-family="sans-serif" font-size="14" lengthAdjust="spacing" textLength="189" x="820.5" y="245.9951">dietaryPreferences: string</text><ellipse cx="811.5" cy="258.9453" fill="none" rx="3" ry="3" style="stroke:#038048;stroke-width:1.0;"/><text fill="#000000" font-family="sans-serif" font-size="14" lengthAdjust="spacing" textLength="321" x="820.5" y="262.292">paymentMethods: List&lt;PAYMENT_METHOD&gt;</text><line style="stroke:#181818;stroke-width:0.5;" x1="801.5" x2="1217.5" y1="269.5938" y2="269.5938"/><ellipse cx="811.5" cy="283.2422" fill="#84BE84" rx="3" ry="3" style="stroke:#038048;stroke-width:1.0;"/><text fill="#000000" font-family="sans-serif" font-size="14" lengthAdjust="spacing" textLength="218" x="820.5" y="286.5889">placeOrder(order: Order): void</text><ellipse cx="811.5" cy="299.5391" fill="#84BE84" rx="3" ry="3" style="stroke:#038048;stroke-width:1.0;"/><text fill="#000000" font-family="sans-serif" font-size="14" lengthAdjust="spacing" textLength="392" x="820.5" y="302.8857">browseMenu(restaurant: Restaurant): List&lt;MenuItem&gt;</text></g><!--class Menu--><g id="elem_Menu"><rect codeLine="42" fill="#F1F1F1" height="145.7813" id="Menu" rx="2.5" ry="2.5" style="stroke:#181818;stroke-width:0.5;" width="293" x="434" y="395"/><ellipse cx="557.25" cy="411" fill="#ADD1B2" rx="11" ry="11" style="stroke:#181818;stroke-width:1.0;"/><path d="M559.5938,406.6719 C558.6563,406.2344 558.0625,406.0938 557.1875,406.0938 C554.5625,406.0938 552.5625,408.1719 552.5625,410.8906 L552.5625,412.0156 C552.5625,414.5938 554.6719,416.4844 557.5625,416.4844 C558.7813,416.4844 559.9375,416.1875 560.6875,415.6406 C561.2656,415.2344 561.5938,414.7813 561.5938,414.3906 C561.5938,413.9375 561.2031,413.5469 560.7344,413.5469 C560.5156,413.5469 560.3125,413.625 560.125,413.8125 C559.6719,414.2969 559.6719,414.2969 559.4844,414.3906 C559.0625,414.6563 558.375,414.7813 557.6094,414.7813 C555.5625,414.7813 554.2656,413.6875 554.2656,411.9844 L554.2656,410.8906 C554.2656,409.1094 555.5156,407.7969 557.25,407.7969 C557.8281,407.7969 558.4375,407.9531 558.9063,408.2031 C559.3906,408.4844 559.5625,408.7031 559.6563,409.1094 C559.7188,409.5156 559.75,409.6406 559.8906,409.7656 C560.0313,409.9063 560.2656,410.0156 560.4844,410.0156 C560.75,410.0156 561.0156,409.875 561.1875,409.6563 C561.2969,409.5 561.3281,409.3125 561.3281,408.8906 L561.3281,407.4688 C561.3281,407.0313 561.3125,406.9063 561.2188,406.75 C561.0625,406.4844 560.7813,406.3438 560.4844,406.3438 C560.1875,406.3438 559.9844,406.4375 559.7656,406.75 L559.5938,406.6719 Z " fill="#000000"/><text fill="#000000" font-family="sans-serif" font-size="14" lengthAdjust="spacing" textLength="38" x="577.75" y="415.8467">Menu</text><line style="stroke:#181818;stroke-width:0.5;" x1="435" x2="726" y1="427" y2="427"/><ellipse cx="445" cy="440.6484" fill="none" rx="3" ry="3" style="stroke:#038048;stroke-width:1.0;"/><text fill="#000000" font-family="sans-serif" font-size="14" lengthAdjust="spacing" textLength="210" x="454" y="443.9951">menuItems: List&lt;MenuItem&gt;</text><line style="stroke:#181818;stroke-width:0.5;" x1="435" x2="726" y1="451.2969" y2="451.2969"/><ellipse cx="445" cy="464.9453" fill="#84BE84" rx="3" ry="3" style="stroke:#038048;stroke-width:1.0;"/><text fill="#000000" font-family="sans-serif" font-size="14" lengthAdjust="spacing" textLength="224" x="454" y="468.292">addItem(item: MenuItem): void</text><ellipse cx="445" cy="481.2422" fill="#84BE84" rx="3" ry="3" style="stroke:#038048;stroke-width:1.0;"/><text fill="#000000" font-family="sans-serif" font-size="14" lengthAdjust="spacing" textLength="253" x="454" y="484.5889">removeItem(item: MenuItem): void</text><ellipse cx="445" cy="497.5391" fill="#84BE84" rx="3" ry="3" style="stroke:#038048;stroke-width:1.0;"/><text fill="#000000" font-family="sans-serif" font-size="14" lengthAdjust="spacing" textLength="249" x="454" y="500.8857">updateItem(item: MenuItem): void</text><ellipse cx="445" cy="513.8359" fill="#84BE84" rx="3" ry="3" style="stroke:#038048;stroke-width:1.0;"/><text fill="#000000" font-family="sans-serif" font-size="14" lengthAdjust="spacing" textLength="214" x="454" y="517.1826">getItem(id: string): MenuItem</text><ellipse cx="445" cy="530.1328" fill="#84BE84" rx="3" ry="3" style="stroke:#038048;stroke-width:1.0;"/><text fill="#000000" font-family="sans-serif" font-size="14" lengthAdjust="spacing" textLength="267" x="454" y="533.4795">listAvailableItems(): List&lt;MenuItem&gt;</text></g><!--class MenuItem--><g id="elem_MenuItem"><rect codeLine="51" fill="#F1F1F1" height="162.0781" id="MenuItem" rx="2.5" ry="2.5" style="stroke:#181818;stroke-width:0.5;" width="316" x="428.5" y="610"/><ellipse cx="546.25" cy="626" fill="#ADD1B2" rx="11" ry="11" style="stroke:#181818;stroke-width:1.0;"/><path d="M548.5938,621.6719 C547.6563,621.2344 547.0625,621.0938 546.1875,621.0938 C543.5625,621.0938 541.5625,623.1719 541.5625,625.8906 L541.5625,627.0156 C541.5625,629.5938 543.6719,631.4844 546.5625,631.4844 C547.7813,631.4844 548.9375,631.1875 549.6875,630.6406 C550.2656,630.2344 550.5938,629.7813 550.5938,629.3906 C550.5938,628.9375 550.2031,628.5469 549.7344,628.5469 C549.5156,628.5469 549.3125,628.625 549.125,628.8125 C548.6719,629.2969 548.6719,629.2969 548.4844,629.3906 C548.0625,629.6563 547.375,629.7813 546.6094,629.7813 C544.5625,629.7813 543.2656,628.6875 543.2656,626.9844 L543.2656,625.8906 C543.2656,624.1094 544.5156,622.7969 546.25,622.7969 C546.8281,622.7969 547.4375,622.9531 547.9063,623.2031 C548.3906,623.4844 548.5625,623.7031 548.6563,624.1094 C548.7188,624.5156 548.75,624.6406 548.8906,624.7656 C549.0313,624.9063 549.2656,625.0156 549.4844,625.0156 C549.75,625.0156 550.0156,624.875 550.1875,624.6563 C550.2969,624.5 550.3281,624.3125 550.3281,623.8906 L550.3281,622.4688 C550.3281,622.0313 550.3125,621.9063 550.2188,621.75 C550.0625,621.4844 549.7813,621.3438 549.4844,621.3438 C549.1875,621.3438 548.9844,621.4375 548.7656,621.75 L548.5938,621.6719 Z " fill="#000000"/><text fill="#000000" font-family="sans-serif" font-size="14" lengthAdjust="spacing" textLength="72" x="566.75" y="630.8467">MenuItem</text><line style="stroke:#181818;stroke-width:0.5;" x1="429.5" x2="743.5" y1="642" y2="642"/><ellipse cx="439.5" cy="655.6484" fill="none" rx="3" ry="3" style="stroke:#038048;stroke-width:1.0;"/><text fill="#000000" font-family="sans-serif" font-size="14" lengthAdjust="spacing" textLength="91" x="448.5" y="658.9951">name: string</text><ellipse cx="439.5" cy="671.9453" fill="none" rx="3" ry="3" style="stroke:#038048;stroke-width:1.0;"/><text fill="#000000" font-family="sans-serif" font-size="14" lengthAdjust="spacing" textLength="133" x="448.5" y="675.292">ingredients: string</text><ellipse cx="439.5" cy="688.2422" fill="none" rx="3" ry="3" style="stroke:#038048;stroke-width:1.0;"/><text fill="#000000" font-family="sans-serif" font-size="14" lengthAdjust="spacing" textLength="204" x="448.5" y="691.5889">dietarySpecifications: string</text><ellipse cx="439.5" cy="704.5391" fill="none" rx="3" ry="3" style="stroke:#038048;stroke-width:1.0;"/><text fill="#000000" font-family="sans-serif" font-size="14" lengthAdjust="spacing" textLength="115" x="448.5" y="707.8857">category: string</text><ellipse cx="439.5" cy="720.8359" fill="none" rx="3" ry="3" style="stroke:#038048;stroke-width:1.0;"/><text fill="#000000" font-family="sans-serif" font-size="14" lengthAdjust="spacing" textLength="95" x="448.5" y="724.1826">price: double</text><ellipse cx="439.5" cy="737.1328" fill="none" rx="3" ry="3" style="stroke:#038048;stroke-width:1.0;"/><text fill="#000000" font-family="sans-serif" font-size="14" lengthAdjust="spacing" textLength="143" x="448.5" y="740.4795">isAvailable: boolean</text><line style="stroke:#181818;stroke-width:0.5;" x1="429.5" x2="743.5" y1="747.7813" y2="747.7813"/><ellipse cx="439.5" cy="761.4297" fill="#84BE84" rx="3" ry="3" style="stroke:#038048;stroke-width:1.0;"/><text fill="#000000" font-family="sans-serif" font-size="14" lengthAdjust="spacing" textLength="290" x="448.5" y="764.7764">updateAvailability(status: boolean): void</text></g><!--class Order--><g id="elem_Order"><rect codeLine="61" fill="#F1F1F1" height="162.0781" id="Order" rx="2.5" ry="2.5" style="stroke:#181818;stroke-width:0.5;" width="379" x="801" y="387"/><ellipse cx="965.75" cy="403" fill="#ADD1B2" rx="11" ry="11" style="stroke:#181818;stroke-width:1.0;"/><path d="M968.0938,398.6719 C967.1563,398.2344 966.5625,398.0938 965.6875,398.0938 C963.0625,398.0938 961.0625,400.1719 961.0625,402.8906 L961.0625,404.0156 C961.0625,406.5938 963.1719,408.4844 966.0625,408.4844 C967.2813,408.4844 968.4375,408.1875 969.1875,407.6406 C969.7656,407.2344 970.0938,406.7813 970.0938,406.3906 C970.0938,405.9375 969.7031,405.5469 969.2344,405.5469 C969.0156,405.5469 968.8125,405.625 968.625,405.8125 C968.1719,406.2969 968.1719,406.2969 967.9844,406.3906 C967.5625,406.6563 966.875,406.7813 966.1094,406.7813 C964.0625,406.7813 962.7656,405.6875 962.7656,403.9844 L962.7656,402.8906 C962.7656,401.1094 964.0156,399.7969 965.75,399.7969 C966.3281,399.7969 966.9375,399.9531 967.4063,400.2031 C967.8906,400.4844 968.0625,400.7031 968.1563,401.1094 C968.2188,401.5156 968.25,401.6406 968.3906,401.7656 C968.5313,401.9063 968.7656,402.0156 968.9844,402.0156 C969.25,402.0156 969.5156,401.875 969.6875,401.6563 C969.7969,401.5 969.8281,401.3125 969.8281,400.8906 L969.8281,399.4688 C969.8281,399.0313 969.8125,398.9063 969.7188,398.75 C969.5625,398.4844 969.2813,398.3438 968.9844,398.3438 C968.6875,398.3438 968.4844,398.4375 968.2656,398.75 L968.0938,398.6719 Z " fill="#000000"/><text fill="#000000" font-family="sans-serif" font-size="14" lengthAdjust="spacing" textLength="41" x="986.25" y="407.8467">Order</text><line style="stroke:#181818;stroke-width:0.5;" x1="802" x2="1179" y1="419" y2="419"/><ellipse cx="812" cy="432.6484" fill="none" rx="3" ry="3" style="stroke:#038048;stroke-width:1.0;"/><text fill="#000000" font-family="sans-serif" font-size="14" lengthAdjust="spacing" textLength="170" x="821" y="435.9951">items: List&lt;MenuItem&gt;</text><ellipse cx="812" cy="448.9453" fill="none" rx="3" ry="3" style="stroke:#038048;stroke-width:1.0;"/><text fill="#000000" font-family="sans-serif" font-size="14" lengthAdjust="spacing" textLength="156" x="821" y="452.292">timestamp: datetime</text><ellipse cx="812" cy="465.2422" fill="none" rx="3" ry="3" style="stroke:#038048;stroke-width:1.0;"/><text fill="#000000" font-family="sans-serif" font-size="14" lengthAdjust="spacing" textLength="146" x="821" y="468.5889">tableNumber: string</text><ellipse cx="812" cy="481.5391" fill="none" rx="3" ry="3" style="stroke:#038048;stroke-width:1.0;"/><text fill="#000000" font-family="sans-serif" font-size="14" lengthAdjust="spacing" textLength="207" x="821" y="484.8857">orderStatus: ORDER_STATUS</text><ellipse cx="812" cy="497.8359" fill="none" rx="3" ry="3" style="stroke:#038048;stroke-width:1.0;"/><text fill="#000000" font-family="sans-serif" font-size="14" lengthAdjust="spacing" textLength="113" x="821" y="501.1826">amount: double</text><ellipse cx="812" cy="514.1328" fill="none" rx="3" ry="3" style="stroke:#038048;stroke-width:1.0;"/><text fill="#000000" font-family="sans-serif" font-size="14" lengthAdjust="spacing" textLength="138" x="821" y="517.4795">payment: Payment</text><line style="stroke:#181818;stroke-width:0.5;" x1="802" x2="1179" y1="524.7813" y2="524.7813"/><ellipse cx="812" cy="538.4297" fill="#84BE84" rx="3" ry="3" style="stroke:#038048;stroke-width:1.0;"/><text fill="#000000" font-family="sans-serif" font-size="14" lengthAdjust="spacing" textLength="353" x="821" y="541.7764">updateOrderStatus(status: ORDER_STATUS): void</text></g><!--class Payment--><g id="elem_Payment"><rect codeLine="71" fill="#F1F1F1" height="129.4844" id="Payment" rx="2.5" ry="2.5" style="stroke:#181818;stroke-width:0.5;" width="419" x="781" y="626.5"/><ellipse cx="954.25" cy="642.5" fill="#ADD1B2" rx="11" ry="11" style="stroke:#181818;stroke-width:1.0;"/><path d="M956.5938,638.1719 C955.6563,637.7344 955.0625,637.5938 954.1875,637.5938 C951.5625,637.5938 949.5625,639.6719 949.5625,642.3906 L949.5625,643.5156 C949.5625,646.0938 951.6719,647.9844 954.5625,647.9844 C955.7813,647.9844 956.9375,647.6875 957.6875,647.1406 C958.2656,646.7344 958.5938,646.2813 958.5938,645.8906 C958.5938,645.4375 958.2031,645.0469 957.7344,645.0469 C957.5156,645.0469 957.3125,645.125 957.125,645.3125 C956.6719,645.7969 956.6719,645.7969 956.4844,645.8906 C956.0625,646.1563 955.375,646.2813 954.6094,646.2813 C952.5625,646.2813 951.2656,645.1875 951.2656,643.4844 L951.2656,642.3906 C951.2656,640.6094 952.5156,639.2969 954.25,639.2969 C954.8281,639.2969 955.4375,639.4531 955.9063,639.7031 C956.3906,639.9844 956.5625,640.2031 956.6563,640.6094 C956.7188,641.0156 956.75,641.1406 956.8906,641.2656 C957.0313,641.4063 957.2656,641.5156 957.4844,641.5156 C957.75,641.5156 958.0156,641.375 958.1875,641.1563 C958.2969,641 958.3281,640.8125 958.3281,640.3906 L958.3281,638.9688 C958.3281,638.5313 958.3125,638.4063 958.2188,638.25 C958.0625,637.9844 957.7813,637.8438 957.4844,637.8438 C957.1875,637.8438 956.9844,637.9375 956.7656,638.25 L956.5938,638.1719 Z " fill="#000000"/><text fill="#000000" font-family="sans-serif" font-size="14" lengthAdjust="spacing" textLength="64" x="974.75" y="647.3467">Payment</text><line style="stroke:#181818;stroke-width:0.5;" x1="782" x2="1199" y1="658.5" y2="658.5"/><ellipse cx="792" cy="672.1484" fill="none" rx="3" ry="3" style="stroke:#038048;stroke-width:1.0;"/><text fill="#000000" font-family="sans-serif" font-size="14" lengthAdjust="spacing" textLength="266" x="801" y="675.4951">paymentMethod: PAYMENT_METHOD</text><ellipse cx="792" cy="688.4453" fill="none" rx="3" ry="3" style="stroke:#038048;stroke-width:1.0;"/><text fill="#000000" font-family="sans-serif" font-size="14" lengthAdjust="spacing" textLength="250" x="801" y="691.792">paymentStatus: PAYMENT_STATUS</text><line style="stroke:#181818;stroke-width:0.5;" x1="782" x2="1199" y1="699.0938" y2="699.0938"/><ellipse cx="792" cy="712.7422" fill="#84BE84" rx="3" ry="3" style="stroke:#038048;stroke-width:1.0;"/><text fill="#000000" font-family="sans-serif" font-size="14" lengthAdjust="spacing" textLength="169" x="801" y="716.0889">processPayment(): void</text><ellipse cx="792" cy="729.0391" fill="#84BE84" rx="3" ry="3" style="stroke:#038048;stroke-width:1.0;"/><text fill="#000000" font-family="sans-serif" font-size="14" lengthAdjust="spacing" textLength="160" x="801" y="732.3857">refundPayment(): void</text><ellipse cx="792" cy="745.3359" fill="#84BE84" rx="3" ry="3" style="stroke:#038048;stroke-width:1.0;"/><text fill="#000000" font-family="sans-serif" font-size="14" lengthAdjust="spacing" textLength="393" x="801" y="748.6826">updatePaymentStatus(status: PAYMENT_STATUS): void</text></g><!--reverse link User to Restaurant--><g id="link_User_Restaurant"><path codeLine="79" d="M629.095,149.7798 C611.805,169.6018 604.722,177.724 587.958,196.943 " fill="none" id="User-backto-Restaurant" style="stroke:#181818;stroke-width:1.0;"/><polygon fill="none" points="640.927,136.215,624.5734,145.8357,633.6165,153.7238,640.927,136.215" style="stroke:#181818;stroke-width:1.0;"/></g><!--reverse link User to Diner--><g id="link_User_Diner"><path codeLine="80" d="M802.6367,133.5366 C842.0857,156.2236 872.777,173.874 912.891,196.942 " fill="none" id="User-backto-Diner" style="stroke:#181818;stroke-width:1.0;"/><polygon fill="none" points="787.033,124.563,799.6455,138.7378,805.6279,128.3354,787.033,124.563" style="stroke:#181818;stroke-width:1.0;"/></g><!--link Restaurant to Menu--><g id="link_Restaurant_Menu"><path codeLine="82" d="M550.219,310.054 C555.225,336.001 561.248,367.217 566.599,394.952 " fill="none" id="Restaurant-Menu" style="stroke:#181818;stroke-width:1.0;"/><text fill="#000000" font-family="sans-serif" font-size="13" lengthAdjust="spacing" textLength="8" x="543.0799" y="330.3243">1</text><text fill="#000000" font-family="sans-serif" font-size="13" lengthAdjust="spacing" textLength="8" x="556.753" y="383.7305">1</text></g><!--link Menu to MenuItem--><g id="link_Menu_MenuItem"><path codeLine="83" d="M582.456,541.058 C583.051,562.975 583.709,587.197 584.318,609.627 " fill="none" id="Menu-MenuItem" style="stroke:#181818;stroke-width:1.0;"/><text fill="#000000" font-family="sans-serif" font-size="13" lengthAdjust="spacing" textLength="8" x="574.2612" y="560.8198">1</text><text fill="#000000" font-family="sans-serif" font-size="13" lengthAdjust="spacing" textLength="23" x="560.1422" y="599.0587">1..*</text></g><!--link Diner to Order--><g id="link_Diner_Order"><path codeLine="84" d="M1004.533,310.054 C1002.433,333.542 999.947,361.347 997.655,386.979 " fill="none" id="Diner-Order" style="stroke:#181818;stroke-width:1.0;"/><text fill="#000000" font-family="sans-serif" font-size="13" lengthAdjust="spacing" textLength="41" x="1002.5" y="353.0669">places</text><text fill="#000000" font-family="sans-serif" font-size="13" lengthAdjust="spacing" textLength="70" x="925.088" y="375.8879">placeOrder</text></g><!--link Order to MenuItem--><g id="link_Order_MenuItem"><path codeLine="85" d="M844.076,549.099 C807.832,568.925 769,590.167 732.764,609.989 " fill="none" id="Order-MenuItem" style="stroke:#181818;stroke-width:1.0;"/><text fill="#000000" font-family="sans-serif" font-size="13" lengthAdjust="spacing" textLength="23" x="722.1876" y="598.8988">1..*</text></g><!--link Order to Payment--><g id="link_Order_Payment"><path codeLine="86" d="M990.5,549.099 C990.5,574.545 990.5,602.325 990.5,626.44 " fill="none" id="Order-Payment" style="stroke:#181818;stroke-width:1.0;"/><text fill="#000000" font-family="sans-serif" font-size="13" lengthAdjust="spacing" textLength="8" x="982.0625" y="615.6061">1</text></g><!--SRC=[XLJBZfim5Dtp5LPMfEsCr2qQZOG6caPA046ow2fou2Qn13QoJQgexR_N3nvcaautOD_7yRbFe5s3il37DavsXssy-vv6w9U7K9Xbc_YW5EgyIjFLU7aByyZxutdWEXQxSBSlZEC-oS9rf0xzBu-_xPCeddpIF8fproEBasYThDHfdHooF5tbSL7ebzAjuh2B8_DgyXPlDXQchB4GQ2-06__F53SG824veMTzRo-CGj8rH-2k61fCQbTGSi0Imh9a7PN-Ca1NHYgjm9sy09MaLEfHFZwSWv2uuvXA-tpDb1rXr8LkLAW1sgglldLjfP3qpTUAjOJ6AlNf2s8jy1wXC0WE5Guba2ja-AOyfT_QVu1wmHsvYD0XBHK1YVajut023hG4CKkI1TY2lB1AQJP4o9Tv8xmQkngNaF8AkC_qDq3cub0ySlPJsEZuc9h0ITEoHnyYVfteQf5bEoH6t1dhWbILFljabhbPcXfsXOzjR1K-jZc3j0RLaAlbP6UAhRY5LzL8-5WRBE7_9pmjUjodwiT1LOdAMMNwkXKjbEH4R6_D37HRdXc_pSh9IQd0AzOfNWPSZ3G3T6Ii1aodBFGwKXDvyrMTP2T6gxkUCWMt8P1_LKYIHjUxQHK7XQ-lHgpVlnz5qqb5_wox44on6psFRYplktwA8vs0nZ1SlBjOUWGRpMm6WdThq34OcCxNdKqxKtCbXl6STUIfezK3XIMUkSWZzVa33dcpx5v-FpqvO-K8pTHxdhEP5byNI2dqpsmXCsYZyFdvqs9gQxipj68QzeMjUe2CI7Ys1nuuEuh5aDs_]--></g></svg>